<?xml version="1.0" encoding="utf-8"?><svg height="104" viewBox="0 0 104 104" width="104" xmlns="http://www.w3.org/2000/svg"><g fill="none" fill-rule="evenodd"><circle cx="52" cy="52" r="48" stroke="#17368c" stroke-width="4"/><path d="m76.0348432 48.5723473v7.309141c-.1324042.2976573-.2151568.6118512-.2151568.9425815h-1.5226481c-1.3736934 0-2.4825784 1.1079467-2.4825784 2.4804777 0 .0330731 0 .0661461.0165506.1157557-.0165506.033073-.0165506.066146-.0165506.1157556v3.2411576c-.7447735 1.2237023-7.1167247 4.0183739-19.2979094 4.0183739-12.1977352 0-18.5862369-2.7946716-19.3144599-4.0183739 0-.0661461-.0165505-.1322922-.0165505-.1984383v-2.8938906c0-.0496096-.0165506-.0826826-.0165506-.1157557 0-.0496095.0165506-.0826826.0165506-.1157556 0-1.372531-1.108885-2.4804777-2.4825784-2.4804777h-1.5391986l-.1986063-.1984382v-8.4336243c0-.0992191.0993031-.1984382.1986063-.1984382h1.5391986c1.3736934 0 2.4825784-1.1079467 2.4825784-2.4804777 0-.0496096-.0165506-.1157557-.0165506-.1653652 0-.0661461.0165506-.1157556.0165506-.1819017v-4.7459807c5.2465156 2.3812586 13.554878 3.158475 19.3310104 3.158475 5.7595819 0 14.0513938-.7772164 19.2979094-3.1419385v4.597152c0 .0496096.0165506.0992192.0165506.1653652 0 .0496096-.0165506.1157557-.0165506.1653652 0 1.372531 1.108885 2.4804777 2.4825784 2.4804777h1.5226481c.1158537 0 .2151568.0992191.2151568.1984382 0 .0661461 0 .1322922.0165505.1984383-.0165505.0496095-.0165505.1157556-.0165505.1819017m-23.5182927-17.6113919c11.8005227 0 18.1393728 2.6127699 19.2151568 3.9026183-.9930313 1.1906293-6.5374564 3.5222784-16.7325784 3.8530088v-4.4317869c0-1.3559945-1.108885-2.4804777-2.4825784-2.4804777s-2.4825784 1.1244832-2.4825784 2.4804777v4.4317869c-10.2116724-.3307304-15.7560975-2.6623795-16.7325784-3.8530088 1.0592335-1.2898484 7.4146342-3.9026183 19.2151568-3.9026183m28.4834495 17.2310519c0-2.5135507-1.8205575-4.6136885-4.2203833-5.0601745v-8.2682591c0-.2149747-.033101-.4134129-.0827526-.6118511-.8771777-6.4823152-15.4416376-8.2517226-24.1803136-8.2517226-8.7883275 0-23.43554 1.785944-24.1968641 8.3344051-.0662021.2149748-.0993031.446486-.0993031.6779973v8.2682591c-2.3998258.446486-4.2203833 2.5466238-4.2203833 5.0601745v8.4336243c0 1.372531.5296167 2.6623794 1.5060976 3.638034.7447735.7441433 1.6881533 1.2402388 2.7142857 1.4221405v1.2071658c0 .3141939.0662021.6283877.1655052.9095085.3972125 1.6536519 1.7212544 3.0096463 3.6245645 4.0679835v28.0624713c.9930313.446486 2.0026132.8598989 3.0287456 1.2402389.6289199.2315112 1.2743903.4630225 1.9364112.6614607v-28.0459348c4.9486062 1.3559945 11.022648 1.819017 15.5409407 1.819017 4.5017422 0 10.5592335-.4630225 15.4912892-1.8024805v28.0459348c1.7047039-.5457051 3.3597561-1.1740928 4.9651568-1.9016996v-28.0624713c2.0853659-1.1575562 3.4590592-2.6458429 3.7238676-4.5310059.0496516-.1984383.0827526-.3968765.0827526-.6118512v-1.2071658c1.0095819-.1819017 1.9529617-.6779973 2.7142857-1.4221406.9599304-.9756546 1.5060976-2.265503 1.5060976-3.638034 0-.1157556-.033101-.2315113-.0496516-.3472669.0165506-.1157556.0496516-.2315112.0496516-.3638034v-7.342214c0-.0661461-.0165505-.1322922-.033101-.1819017.0165505-.0661461.033101-.1322922.033101-.1984383" fill="#17368c" fill-rule="nonzero"/></g></svg>