<?xml version="1.0" encoding="utf-8"?><svg height="104" viewBox="0 0 104 104" width="104" xmlns="http://www.w3.org/2000/svg"><g fill="none" fill-rule="evenodd"><circle cx="52" cy="52" r="48" stroke="#17368c" stroke-width="4"/><path d="m68.9536808 29.8608197 12.1981125 16.8316877c1.5469307 2.1338488.8938117 5.1147181-1.2759951 6.6628094l-27.8548002 19.8515478c-2.1522108 1.5331892-5.1502087 1.20285-6.6807134-.9083407l-4.0271473-5.5557782c-5.9649829 3.8366259-10.4707043 6.7346673-13.5171641 8.6941241-1.8480234 1.1886328-4.2330258 2.7226459-7.1550071 4.6020392-.8407937.5407913-2.0333767 1.3078505-3.577749 2.3011775-.4145776.2666528-1.0107945.6501344-1.7886508 1.1504449-.5162095.3320215-2.9554002-3.515414-2.4391907-3.8474355.7778563-.5003105 1.3740732-.8837921 1.7886508-1.1504449 1.5443723-.993327 2.7369553-1.7603862 3.577749-2.3011775 2.9219813-1.8793933 5.3069836-3.4134064 7.1550071-4.6020392 3.0058676-1.9333483 7.4323684-4.7804356 13.2795023-8.5412621l-5.4922104-7.5812059c-1.5471206-2.1341107-.8969819-5.1161156 1.2751534-6.6634986l22.1358625-15.7764677-17.1939858.3625794c-1.251245.0263486-2.2867857-.9739698-2.3129449-2.2342737s.966969-2.3033418 2.2182141-2.3296904l24.2099665-.5105779c1.9595545-.7248705 4.2179128-.1944531 5.4773406 1.5457823zm-3.578799 2.9809644-.7337915.0142159-27.604483 19.6742146c-.1913353.1363032-.2189836.2631183-.232016.2451414l12.1962103 16.8315576c.002813.0038804.1903702.0245467.4028169-.1267958l27.8528397-19.8501502c.1923985-.1373979.2204993-.2656014.2349125-.2457198l-11.992253-16.548458c-.0411064.003108-.0825277.005116-.1242359.0059943z" fill="#17368c" fill-rule="nonzero"/></g></svg>