<?xml version="1.0" encoding="utf-8"?><svg height="104" viewBox="0 0 104 104" width="104" xmlns="http://www.w3.org/2000/svg"><g fill="none" fill-rule="evenodd"><circle cx="52" cy="52" r="48" stroke="#17368c" stroke-width="4"/><path d="m39.4217874 49.4047045c.5355316-.7517897 1.4018326-1.1433468 2.2681336-1.1433468.5670335 0 1.1340669.1566229 1.6223456.5168554.6142862.4385439 1.0080594 1.0806976 1.1183159 1.816825.1260074.7361273-.0472528 1.4722547-.4882788 2.0674215-.4410259.5951668-1.086814 1.0023862-1.8271076 1.1120222-.7402936.1096359-1.4648363-.0626492-2.0791225-.5011931-1.2443233-.8927502-1.52784-2.6312638-.6142862-3.8685842m25.0124737-5.011931c.4410259-.5951668 1.086814-1.0023862 1.8271076-1.1120222.1417584-.0313245.2835167-.0313245.441026-.0313245.5827843 0 1.1498177.1722851 1.6380965.5168553 1.2443233.9084125 1.52784 2.6469261.6142862 3.8842465-.8978029 1.2373205-2.6461559 1.5192416-3.9062302.6264914-.5985352-.438544-.9923084-1.0806976-1.1183158-1.816825-.1102565-.7361273.0630037-1.4722547.5040297-2.0674215m-2.8194162 7.0950148c.220513.2036097.4252751.4072193.661539.5951668 1.3388289.9553993 2.8824198 1.4096055 4.4102599 1.4096055 2.3311373 0 4.6307728-1.0650353 6.0956091-3.08547 2.4413938-3.3360665 1.6853493-8.0190895-1.6695984-10.4467435-1.6380965-1.1590091-3.6227134-1.6445399-5.6073303-1.3156319-1.984617.3132457-3.717219 1.378281-4.8985386 2.9914963s-1.6538475 3.5866631-1.3388289 5.5601109c.0157509.0626491.0315018.109636.0472528.1566228-9.8915828 6.9227296-23.4531318 24.4018388-31.2655921 38.1219998 1.8271077-10.415419 5.5128248-20.8465003 11.2776645-27.3463482.7402936.2505965 1.52784.3758948 2.3311373.3758948.4095241 0 .8032973-.0313246 1.2128214-.0939737 1.984617-.3132457 3.717219-1.378281 4.8985386-2.9914963s1.6538475-3.6023254 1.3388289-5.5601109c-.3150185-1.9734478-1.3860816-3.7119614-3.0241781-4.8866327-3.3549477-2.4119917-8.0644752-1.6602021-10.4901181 1.6758644-1.9373641 2.6469261-1.8271076 6.1082909-.0472528 8.6455809-7.4816908 8.6299186-11.3879209 22.1934568-12.8842591 34.2064288 2.0161188 1.5035792 4.158245 2.8348734 6.4106277 4.0095447 6.1428619-13.0153582 21.7835334-34.2847401 32.5414172-42.0219085m15.1366418 16.3357624c-.9135538 1.2373204-2.6619068 1.5192416-3.9062301.6264914-1.2443233-.9084125-1.52784-2.6469261-.6300371-3.8842465.5512825-.7517897 1.4018326-1.1433468 2.2681336-1.1433468.5670334 0 1.1498177.1722852 1.6380965.5325177 1.2443233.8927502 1.52784 2.6312637.6300371 3.8685842m2.1421262-7.6745193c-3.3549476-2.427654-8.0644751-1.6758644-10.5058689 1.6602022-1.0238103 1.4096055-1.4490854 3.0384831-1.3860817 4.6516984-13.3095341 4.1818299-25.4062468 13.2659547-36.7626659 27.6439316 1.4648363.6891405 2.9611745 1.3312942 4.5047654 1.8951364 10.6161255-13.2502924 21.5630204-21.3320311 33.911748-25.1379662.4095241.5168554.866301.9867239 1.4175835 1.3939433 1.3230779.9553994 2.8666689 1.4096056 4.3945089 1.4096056 2.3311373 0 4.6307728-1.0650353 6.11136-3.08547 2.4256429-3.3360665 1.6695984-8.0190895-1.6853493-10.4310813m-36.841578-27.0329459c-.8978029 1.2373204-2.6619068 1.5035793-3.9046551.6108291-1.2458984-.8927502-1.5294151-2.6312638-.6158612-3.8842465.4410259-.5951668 1.086814-.9867239 1.8113567-1.1120222.1575092-.0156623.2992676-.0313246.4567769-.0313246.5827843 0 1.1498177.1879475 1.6380965.5325177 1.2443233.8927502 1.5120891 2.6312638.6142862 3.8842465m2.1578771-7.6901816c-1.6380965-1.1746713-3.6227134-1.6445398-5.6073303-1.3312941-1.984617.3132457-3.717219 1.378281-4.8985386 2.9914963-1.9373642 2.646926-1.8271077 6.1396154-.0472528 8.6769054-6.6468916 8.0504141-15.9399391 30.7137394-17.6567903 47.8012915 1.4018326 1.5035792 2.8981707 2.9131848 4.4732635 4.2288167.4095242-15.6466219 9.9073337-41.0978338 16.9795004-49.210897.7560446.2505965 1.543591.3758948 2.3311374.3758948 2.3311373 0 4.6307728-1.0806976 6.0956091-3.08547 2.4256429-3.3517288 1.6853493-8.0347518-1.6695984-10.4467436" fill="#17368c" fill-rule="nonzero"/></g></svg>