<?xml version="1.0" encoding="utf-8"?><svg height="104" viewBox="0 0 104 104" width="104" xmlns="http://www.w3.org/2000/svg"><g fill="none" fill-rule="evenodd"><circle cx="52" cy="52" r="48" stroke="#17368c" stroke-width="4"/><g transform="translate(16 16)"><path d="m0 0h72v72h-72z"/><path d="m36 23.2128466c7.003611 0 12.6811594 5.7155064 12.6811594 12.7659408 0 5.9940976-4.1037104 11.0233142-9.6371315 12.3957727l-.0005496 35.5140521c0 .6138025-.4542039 1.1113878-1.0144928 1.1113878h-4.057971c-.5602889 0-1.0144928-.4975853-1.0144928-1.1113878l-.0005496-35.5140521c-5.5334211-1.3724585-9.6371315-6.4016751-9.6371315-12.3957727 0-7.0504344 5.6775484-12.7659408 12.6811594-12.7659408zm-22.7634546-9.6532694c1.0937803.8808743 1.2711171 2.4875761.3960929 3.588669-5.07158803 6.3818683-7.56017453 12.6449289-7.56017453 18.8305412s2.4885865 12.4486729 7.56017453 18.8305413c.8750242 1.1010928.6976874 2.7077947-.3960929 3.588669-1.0937803.8808742-2.6898116.7023518-3.56483586-.398741-5.74966802-7.2351352-8.67170954-14.5890781-8.67170954-22.0204693s2.92204152-14.7853341 8.67170954-22.0204692c.87502426-1.1010929 2.47105556-1.2796153 3.56483586-.398741zm49.0917451.398741c5.749668 7.2351351 8.6717095 14.589078 8.6717095 22.0204692s-2.9220415 14.7853341-8.6717095 22.0204693c-.8750243 1.1010928-2.4710556 1.2796152-3.5648359.398741-1.0937803-.8808743-1.2711171-2.4875762-.3960929-3.588669 5.071588-6.3818684 7.5601745-12.644929 7.5601745-18.8305413s-2.4885865-12.4486729-7.5601745-18.8305412c-.8750242-1.1010929-.6976874-2.7077947.3960929-3.588669s2.6898116-.7023519 3.5648359.398741zm-41.1533262 7.6407851c1.1654713.7821755 1.480405 2.3673717.7034241 3.5406349-2.4397807 3.6841383-3.6320116 7.2847433-3.6320116 10.8390492s1.1922309 7.1549109 3.6320116 10.8390492c.7769809 1.1732632.4620472 2.7584594-.7034241 3.5406349s-2.74014.4651362-3.5171208-.708127c-2.9708473-4.4860638-4.4839305-9.0556609-4.4839305-13.6715571s1.5130832-9.1854933 4.4839305-13.6715571c.7769808-1.1732632 2.3516495-1.4903025 3.5171208-.708127zm33.1671922.708127c2.9708473 4.4860638 4.4839305 9.0556609 4.4839305 13.6715571s-1.5130832 9.1854933-4.4839305 13.6715571c-.7769808 1.1732632-2.3516495 1.4903025-3.5171208.708127s-1.480405-2.3673717-.7034241-3.5406349c2.4397807-3.6841383 3.6320116-7.2847433 3.6320116-10.8390492s-1.1922309-7.1549109-3.6320116-10.8390492c-.7769809-1.1732632-.4620472-2.7584594.7034241-3.5406349s2.74014-.4651362 3.5171208.708127zm-18.3421565 5.501355c-4.482311 0-8.115942 3.6579241-8.115942 8.1702021s3.633631 8.1702021 8.115942 8.1702021 8.115942-3.6579241 8.115942-8.1702021-3.633631-8.1702021-8.115942-8.1702021z" fill="#17368c" fill-rule="nonzero"/></g></g></svg>