<?xml version="1.0" encoding="utf-8"?><svg height="104" viewBox="0 0 104 104" width="104" xmlns="http://www.w3.org/2000/svg"><g fill="none" fill-rule="evenodd"><circle cx="52" cy="52" r="48" stroke="#17368c" stroke-width="4"/><path d="m48.9920124 52.0450417c-1.1630899 0-2.1190542-.9030777-2.1190542-2.0357515s.9559643-2.0357515 2.1190542-2.0357515c1.1790226 0 2.1349868.9030777 2.1349868 2.0357515s-.9559642 2.0357515-2.1349868 2.0357515zm26.0818919 24.6126948c4.2381083-4.530695 6.8510773-10.5154983 6.8510773-17.0819449 0-6.5358338-2.5651708-12.7655395-7.2493958-17.5564434-.4301839-.4438857-1.0515607-.7040945-1.7048029-.7194009-.6373095 0-1.2586863.229596-1.7207357.6734817l-13.8933475 13.3318764-2.2943142-2.204122c.5257803-.9183841.8444351-1.9745258.8444351-3.0918932 0-3.6582302-3.1068839-6.6276722-6.9148082-6.6276722-3.8079244 0-6.8988756 2.969442-6.8988756 6.6276722 0 3.6582301 3.0909512 6.6276722 6.8988756 6.6276722.8922333 0 1.7366684-.1683705 2.5173725-.4591921l2.4695744 2.3724924-17.0639623 16.4084632c-.4620494.4438857-.7169732 1.0408353-.7010404 1.6530914.0159327.6275625.2867892 1.2245122.7488386 1.6377851 4.986947 4.5000822 11.4715713 6.964413 18.2748504 6.964413.7169732 0 1.4180137-.0459192 2.1031214-.1071448l-7.9345035 14.877823c.3505203.0153064.7010405.0153064 1.0674935.0153064 1.4817446 0 2.9475565-.0612256 4.3974356-.1836768l8.4443511-15.8115136c3.0272202-.9183841 5.8154494-2.3724923 8.269091-4.2092606l9.8782975 9.4899694c1.2427535-.9489969 2.4377089-1.9898323 3.5370678-3.0918932zm-2.2943143-29.6638076c2.8360274 3.6276174 4.3655702 8.0205548 4.3655702 12.5818627 0 11.6022529-9.8304993 21.0463031-21.9075146 21.0463031-4.7479559 0-9.3206517-1.4694146-13.0967105-4.1939542zm-27.229527-11.6030182c1.3064845-.1790849 2.5221524.6796043 2.7149385 1.9331986.1943794 1.255125-.7074135 2.4230035-2.0123048 2.6097416-3.4032328.4836823-5.8696206 2.5469853-7.1330867 5.9664356-.3473337.9413437-1.268246 1.5291096-2.2528892 1.5291096-.2644834 0-.53534-.0428579-.7998234-.1331657-1.2427536-.425518-1.8928093-1.7388073-1.4514724-2.9327067 1.8386379-4.9745807 5.8250089-8.2455589 10.934638-8.972613zm.0291569-7.3896249c1.3351634-.0413273 2.4393022.9183841 2.5014398 2.1842236.0621377 1.2673701-.9559642 2.3418796-2.2736017 2.4031052-7.0247441.3199038-13.0998971 5.1949929-15.1137951 12.1303238-.2947557 1.0148144-1.2554998 1.6791123-2.3006874 1.6791123-.2134987 0-.4301839-.0275515-.6436826-.0857159-1.2714325-.3398021-2.0154913-1.6071722-1.6601913-2.8286231 2.5699506-8.8455699 10.4040779-15.0676224 19.4905183-15.4824259z" fill="#17368c" fill-rule="nonzero"/></g></svg>